<svg xmlns="http://www.w3.org/2000/svg">
<defs>
<symbol id="btn-menu" width="24" height="24" viewBox="0 0 24 24" fill="none">
<path d="M2 5.995C2 5.445 2.446 5 2.995 5H11.005C11.2689 5 11.522 5.10483 11.7086 5.29143C11.8952 5.47803 12 5.73111 12 5.995C12 6.25889 11.8952 6.51197 11.7086 6.69857C11.522 6.88517 11.2689 6.99 11.005 6.99H2.995C2.73111 6.99 2.47803 6.88517 2.29143 6.69857C2.10483 6.51197 2 6.25889 2 5.995ZM2 12C2 11.45 2.446 11.005 2.995 11.005H21.005C21.2689 11.005 21.522 11.1098 21.7086 11.2964C21.8952 11.483 22 11.7361 22 12C22 12.2639 21.8952 12.517 21.7086 12.7036C21.522 12.8902 21.2689 12.995 21.005 12.995H2.995C2.73111 12.995 2.47803 12.8902 2.29143 12.7036C2.10483 12.517 2 12.2639 2 12ZM2.995 17.01C2.73111 17.01 2.47803 17.1148 2.29143 17.3014C2.10483 17.488 2 17.7411 2 18.005C2 18.2689 2.10483 18.522 2.29143 18.7086C2.47803 18.8952 2.73111 19 2.995 19H15.005C15.2689 19 15.522 18.8952 15.7086 18.7086C15.8952 18.522 16 18.2689 16 18.005C16 17.7411 15.8952 17.488 15.7086 17.3014C15.522 17.1148 15.2689 17.01 15.005 17.01H2.995Z" fill="white"/>
</symbol>
<symbol id="btn-next-big" width="24" height="24" viewBox="0 0 24 24" fill="none">
<path d="M9 18L15 12L9 6" stroke="white" stroke-linecap="round" stroke-linejoin="round"/> 
</symbol>
<symbol id="btn-next-small" width="18" height="18" viewBox="0 0 18 18" fill="none">
<path d="M6.75 13.5L11.25 9L6.75 4.5" stroke="white" stroke-linecap="round" stroke-linejoin="round"/>
</symbol>
<symbol id="btn-prev-big" width="24" height="24" viewBox="0 0 24 24" fill="none">
<path d="M15 18L9 12L15 6" stroke="white" stroke-opacity="0.5" stroke-linecap="round" stroke-linejoin="round"/> 
</symbol>
<symbol id="btn-prev-small" width="18" height="18" viewBox="0 0 18 18" fill="none">
<path d="M11.25 13.5L6.75 9L11.25 4.5" stroke="white" stroke-opacity="0.5" stroke-linecap="round" stroke-linejoin="round"/>
</symbol>
<symbol id="cross-big" width="24" height="24" viewBox="0 0 24 24">
<path d="M18 6L6 18" stroke-width="1.3" stroke-linecap="round" stroke-linejoin="round"/>
<path d="M6 6L18 18" stroke-width="1.3" stroke-linecap="round" stroke-linejoin="round"/>
</symbol>
<symbol id="cross-small" width="20" height="20" viewBox="0 0 20 20">
<path d="M15 5L5 15" stroke-width="1.3" stroke-linecap="round" stroke-linejoin="round"/>
<path d="M5 5L15 15" stroke-width="1.3" stroke-linecap="round" stroke-linejoin="round"/>
</symbol>
<symbol id="facebook-big" width="28" height="28" viewBox="0 0 28 28" opacity="0.8">
<path d="M17.0799 4.06014C17.2899 4.06014 17.4999 4.06014 17.9199 4.06014V7.21014C17.7099 7.21014 17.2899 7.21014 16.8699 7.21014C16.4499 7.21014 16.0299 7.21014 15.8199 7.42014C15.6099 7.63014 15.6099 7.84014 15.6099 8.33014C15.6099 8.75014 15.6099 9.03014 15.6099 9.45014H17.9199V12.1101H15.6099V23.6601H12.0399V12.0401H10.1499V9.38014H12.0399V8.47014C12.0399 6.93014 12.2499 5.81014 12.6699 5.32014C13.2999 4.41014 14.5599 3.99014 16.4499 3.99014C16.6599 4.06014 16.8699 4.06014 17.0799 4.06014Z" /> 
</symbol>
<symbol id="facebook-small" width="24" height="24" viewBox="0 0 24 24" opacity="0.8">
<path d="M14.6399 3.48011C14.8199 3.48011 15 3.48011 15.36 3.48011V6.18011C15.18 6.18011 14.82 6.18011 14.46 6.18011C14.1 6.18011 13.74 6.18011 13.56 6.36011C13.38 6.54011 13.3799 6.72011 13.3799 7.14011C13.3799 7.50011 13.3799 7.74011 13.3799 8.10011H15.36V10.3801H13.3799V20.2801H10.32V10.3201H8.69995V8.04011H10.32V7.26011C10.32 5.94011 10.5 4.98011 10.86 4.56011C11.4 3.78011 12.48 3.4201 14.1 3.4201C14.28 3.4801 14.4599 3.48011 14.6399 3.48011Z"/>
</symbol>
<symbol id="heart" width="24" height="24" viewBox="0 0 24 24" fill="none">
<path d="M20.8401 4.60999C20.3294 4.099 19.7229 3.69364 19.0555 3.41708C18.388 3.14052 17.6726 2.99817 16.9501 2.99817C16.2276 2.99817 15.5122 3.14052 14.8448 3.41708C14.1773 3.69364 13.5709 4.099 13.0601 4.60999L12.0001 5.66999L10.9401 4.60999C9.90843 3.5783 8.50915 2.9987 7.05012 2.9987C5.59109 2.9987 4.19181 3.5783 3.16012 4.60999C2.12843 5.64169 1.54883 7.04096 1.54883 8.49999C1.54883 9.95903 2.12843 11.3583 3.16012 12.39L4.22012 13.45L12.0001 21.23L19.7801 13.45L20.8401 12.39C21.3511 11.8792 21.7565 11.2728 22.033 10.6053C22.3096 9.93789 22.4519 9.22248 22.4519 8.49999C22.4519 7.77751 22.3096 7.0621 22.033 6.39464C21.7565 5.72718 21.3511 5.12075 20.8401 4.60999V4.60999Z" stroke-width="2" stroke-linecap="round" stroke-linejoin="round"/>
</symbol>
<symbol id="instagram-big" width="28" height="28" viewBox="0 0 28 28" opacity="0.8">
<path d="M25.1279 9.41145C25.1142 8.47139 24.9401 7.53878 24.6067 6.65957C24.0233 5.15821 22.8354 3.97103 21.3315 3.38985C20.4621 3.06325 19.5428 2.88816 18.6124 2.86829C17.4158 2.81489 17.0364 2.79999 13.9988 2.79999C10.9612 2.79999 10.5719 2.79999 9.38397 2.86829C8.45478 2.88816 7.53554 3.06325 6.66606 3.38985C5.1622 3.97103 3.97304 5.15821 3.3909 6.65957C3.06375 7.52761 2.88712 8.44532 2.86971 9.37296C2.81622 10.5688 2.80005 10.9476 2.80005 13.9801C2.80005 17.0127 2.80005 17.4001 2.86971 18.5873C2.88837 19.5162 3.06375 20.4326 3.3909 21.3032C3.97428 22.8033 5.1622 23.9905 6.66731 24.5716C7.53306 24.9094 8.45229 25.1006 9.38521 25.1304C10.5831 25.1838 10.9625 25.2 14.0001 25.2C17.0376 25.2 17.427 25.2 18.6149 25.1304C19.5441 25.1118 20.4633 24.9367 21.334 24.6101C22.8379 24.0277 24.0258 22.8405 24.6092 21.3404C24.9363 20.4711 25.1117 19.5547 25.1304 18.6245C25.1839 17.4299 25.2001 17.0511 25.2001 14.0174C25.1976 10.9848 25.1976 10.5999 25.1279 9.41145ZM13.9913 19.7149C10.8144 19.7149 8.24083 17.1455 8.24083 13.9739C8.24083 10.8023 10.8144 8.23296 13.9913 8.23296C17.1658 8.23296 19.7419 10.8023 19.7419 13.9739C19.7419 17.1455 17.1658 19.7149 13.9913 19.7149ZM19.9707 9.3593C19.2281 9.3593 18.6298 8.76074 18.6298 8.02061C18.6298 7.28049 19.2281 6.68193 19.9707 6.68193C20.7108 6.68193 21.3104 7.28049 21.3104 8.02061C21.3104 8.76074 20.7108 9.3593 19.9707 9.3593Z"/>
<path d="M13.993 17.479C15.9279 17.479 17.4965 15.9104 17.4965 13.9755C17.4965 12.0406 15.9279 10.472 13.993 10.472C12.0581 10.472 10.4895 12.0406 10.4895 13.9755C10.4895 15.9104 12.0581 17.479 13.993 17.479Z" />
</symbol>
<symbol id="instagram-small" width="24" height="24" viewBox="0 0 24 24" opacity="0.8">
<path d="M21.5381 8.06697C21.5263 7.2612 21.3771 6.46182 21.0913 5.70821C20.5913 4.42133 19.5731 3.40374 18.284 2.90559C17.5388 2.62565 16.7509 2.47557 15.9533 2.45854C14.9277 2.41277 14.6025 2.39999 11.9988 2.39999C9.39519 2.39999 9.06148 2.39999 8.04326 2.45854C7.24682 2.47557 6.4589 2.62565 5.71363 2.90559C4.4246 3.40374 3.40532 4.42133 2.90634 5.70821C2.62594 6.45224 2.47454 7.23885 2.45961 8.03397C2.41376 9.059 2.3999 9.38365 2.3999 11.983C2.3999 14.5823 2.3999 14.9144 2.45961 15.932C2.4756 16.7281 2.62594 17.5137 2.90634 18.2598C3.40639 19.5457 4.4246 20.5633 5.7147 21.0614C6.45677 21.3509 7.24468 21.5148 8.04433 21.5404C9.07107 21.5862 9.39626 21.6 11.9999 21.6C14.6035 21.6 14.9373 21.6 15.9555 21.5404C16.7519 21.5244 17.5398 21.3743 18.2862 21.0944C19.5752 20.5952 20.5934 19.5776 21.0935 18.2918C21.3739 17.5467 21.5242 16.7611 21.5402 15.9639C21.586 14.9399 21.5999 14.6153 21.5999 12.0149C21.5978 9.41558 21.5978 9.08561 21.5381 8.06697ZM11.9924 16.8985C9.26938 16.8985 7.06343 14.6962 7.06343 11.9776C7.06343 9.25912 9.26938 7.05683 11.9924 7.05683C14.7134 7.05683 16.9214 9.25912 16.9214 11.9776C16.9214 14.6962 14.7134 16.8985 11.9924 16.8985ZM17.1176 8.02226C16.4811 8.02226 15.9683 7.50921 15.9683 6.87481C15.9683 6.24042 16.4811 5.72737 17.1176 5.72737C17.752 5.72737 18.2659 6.24042 18.2659 6.87481C18.2659 7.50921 17.752 8.02226 17.1176 8.02226Z" />
<path d="M11.994 14.982C13.6525 14.982 14.997 13.6375 14.997 11.979C14.997 10.3205 13.6525 8.97598 11.994 8.97598C10.3355 8.97598 8.99097 10.3205 8.99097 11.979C8.99097 13.6375 10.3355 14.982 11.994 14.982Z" />
</symbol>
<symbol id="youtube-big" width="28" height="28" viewBox="0 0 28 28" opacity="0.8">
<path fill-rule="evenodd" clip-rule="evenodd" d="M21.2101 5.24986C20.0201 5.17986 17.5701 5.10986 13.8601 5.10986H13.3701C9.8001 5.10986 7.42013 5.17986 6.23013 5.31986C4.62013 5.45986 3.5001 5.87986 2.8701 6.43986C2.3101 6.92986 1.89012 7.83986 1.75012 9.02986C1.68012 9.79986 1.61011 11.4099 1.61011 13.8599V14.2099C1.61011 16.5199 1.6801 18.1299 1.8201 18.8999C2.0301 20.0199 2.38013 20.8599 3.08013 21.3499C3.78013 21.9099 4.97012 22.2599 6.65012 22.3999C7.84012 22.4699 10.2901 22.5399 14.0001 22.5399H14.4901C18.0601 22.5399 20.4401 22.4699 21.6301 22.3299C23.2401 22.1899 24.3601 21.7699 24.9901 21.2099C25.5501 20.7199 25.9701 19.8099 26.1101 18.6199C26.1801 17.8499 26.2501 16.2399 26.2501 13.7899V13.4399C26.2501 11.1299 26.1801 9.51986 26.0401 8.74986C25.8301 7.62986 25.4801 6.78986 24.7801 6.29986C24.0801 5.73986 22.8901 5.38986 21.2101 5.24986ZM18.4801 13.8599L10.7801 18.4799V9.23986L18.4801 13.8599Z" />
</symbol>
<symbol id="youtube-small" width="24" height="24" viewBox="0 0 24 24" opacity="0.8">
<path fill-rule="evenodd" clip-rule="evenodd" d="M18.1801 4.49988C17.1601 4.43988 15.0601 4.37988 11.8801 4.37988H11.4601C8.40012 4.37988 6.36015 4.43988 5.34015 4.55988C3.96015 4.67988 3.00012 5.03988 2.46012 5.51988C1.98012 5.93988 1.62013 6.71988 1.50013 7.73988C1.44013 8.39988 1.38013 9.77988 1.38013 11.8799V12.1799C1.38013 14.1599 1.44012 15.5399 1.56012 16.1999C1.74012 17.1599 2.04015 17.8799 2.64015 18.2999C3.24015 18.7799 4.26013 19.0799 5.70013 19.1999C6.72013 19.2599 8.82013 19.3199 12.0001 19.3199H12.4201C15.4801 19.3199 17.5201 19.2599 18.5401 19.1399C19.9201 19.0199 20.8801 18.6599 21.4201 18.1799C21.9001 17.7599 22.2601 16.9799 22.3801 15.9599C22.4401 15.2999 22.5001 13.9199 22.5001 11.8199V11.5199C22.5001 9.53988 22.4401 8.15988 22.3201 7.49988C22.1401 6.53988 21.8401 5.81988 21.2401 5.39988C20.6401 4.91988 19.6201 4.61988 18.1801 4.49988ZM15.8401 11.8799L9.24015 15.8399V7.91988L15.8401 11.8799Z" />
</symbol>

<symbol id="logo-50x50" width="50" height="50" fill="none" viewBox="14.7 15 48.6 50">
<g filter="url(#filter0_d_74_1181)">
<path d="M57.9513 44.0057L47.4077 19.8544L45.1088 18.2607L42.4134 17.4025L38.7668 16.4218L34.486 18.2607L31.6321 19.8544L42.4134 44.0057H57.9513Z" fill="url(#paint0_linear_74_1181)"/>
</g>
<g filter="url(#filter1_d_74_1181)">
<path d="M20.1132 35.9297L30.6567 60.1375L32.9557 61.735L35.651 62.5952L39.2977 63.5782L43.5785 61.735L46.4324 60.1375L35.651 35.9297H20.1132Z" fill="url(#paint1_linear_74_1181)"/>
</g>
<path d="M31.0682 20.17L14.6998 43.8298L31.0682 44.0052L42.9005 20.17C43.7312 17.7316 46.3306 19.154 47.5264 20.17C42.4158 10.8066 34.4248 16.2686 31.0682 20.17Z" fill="white"/>
<path d="M46.9318 59.83L63.3002 36.1702L46.9318 35.9948L35.0995 59.83C34.2688 62.2684 31.6694 60.846 30.4736 59.83C35.5842 69.1934 43.5752 63.7314 46.9318 59.83Z" fill="white"/>
<defs>
<filter id="filter0_d_74_1181" x="11.6321" y="0.421753" width="66.3191" height="67.584" filterUnits="userSpaceOnUse" color-interpolation-filters="sRGB">
<feFlood flood-opacity="0" result="BackgroundImageFix"/>
<feColorMatrix in="SourceAlpha" type="matrix" values="0 0 0 0 0 0 0 0 0 0 0 0 0 0 0 0 0 0 127 0" result="hardAlpha"/>
<feOffset dy="4"/>
<feGaussianBlur stdDeviation="10"/>
<feComposite in2="hardAlpha" operator="out"/>
<feColorMatrix type="matrix" values="0 0 0 0 0 0 0 0 0 0 0 0 0 0 0 0 0 0 0.25 0"/>
<feBlend mode="normal" in2="BackgroundImageFix" result="effect1_dropShadow_74_1181"/>
<feBlend mode="normal" in="SourceGraphic" in2="effect1_dropShadow_74_1181" result="shape"/>
</filter>
<filter id="filter1_d_74_1181" x="0.113281" y="19.9297" width="66.3191" height="67.6486" filterUnits="userSpaceOnUse" color-interpolation-filters="sRGB">
<feFlood flood-opacity="0" result="BackgroundImageFix"/>
<feColorMatrix in="SourceAlpha" type="matrix" values="0 0 0 0 0 0 0 0 0 0 0 0 0 0 0 0 0 0 127 0" result="hardAlpha"/>
<feOffset dy="4"/>
<feGaussianBlur stdDeviation="10"/>
<feComposite in2="hardAlpha" operator="out"/>
<feColorMatrix type="matrix" values="0 0 0 0 0 0 0 0 0 0 0 0 0 0 0 0 0 0 0.25 0"/>
<feBlend mode="normal" in2="BackgroundImageFix" result="effect1_dropShadow_74_1181"/>
<feBlend mode="normal" in="SourceGraphic" in2="effect1_dropShadow_74_1181" result="shape"/>
</filter>
<linearGradient id="paint0_linear_74_1181" x1="55.2245" y1="44.0057" x2="42.7204" y2="20.613" gradientUnits="userSpaceOnUse">
<stop/>
<stop offset="0.494792" stop-color="white"/>
<stop offset="1" stop-color="white"/>
</linearGradient>
<linearGradient id="paint1_linear_74_1181" x1="22.84" y1="35.9297" x2="35.3897" y2="59.3528" gradientUnits="userSpaceOnUse">
<stop stop-color="#0C0C0C"/>
<stop offset="0.494792" stop-color="white"/>
<stop offset="1" stop-color="white"/>
</linearGradient>
</defs> 
</symbol>

<symbol id="logo-40x40" width="40" height="40" fill="none" viewBox="16.56 15 38.88 40">
<g filter="url(#filter0_d_74_1186)">
<path d="M51.1613 38.2052L42.7265 18.8842L40.8873 17.6092L38.731 16.9227L35.8137 16.1381L32.3891 17.6092L30.106 18.8842L38.731 38.2052H51.1613Z" fill="url(#paint0_linear_74_1186)"/>
</g>
<g filter="url(#filter1_d_74_1186)">
<path d="M20.8927 31.7431L29.3275 51.1094L31.1667 52.3873L33.3229 53.0755L36.2402 53.8619L39.6649 52.3873L41.948 51.1094L33.3229 31.7431H20.8927Z" fill="url(#paint1_linear_74_1186)"/>
</g>
<path d="M29.6545 19.136L16.5599 38.0638L29.6545 38.2041L39.1204 19.136C39.785 17.1853 41.8644 18.3232 42.8211 19.136C38.7327 11.6453 32.3399 16.0149 29.6545 19.136Z" fill="white"/>
<path d="M42.3455 50.864L55.4401 31.9362L42.3455 31.7959L32.8796 50.864C32.215 52.8147 30.1356 51.6768 29.1789 50.864C33.2673 58.3547 39.6601 53.9851 42.3455 50.864Z" fill="white"/>
<defs>
<filter id="filter0_d_74_1186" x="10.106" y="0.138062" width="61.0554" height="62.0672" filterUnits="userSpaceOnUse" color-interpolation-filters="sRGB">
<feFlood flood-opacity="0" result="BackgroundImageFix"/>
<feColorMatrix in="SourceAlpha" type="matrix" values="0 0 0 0 0 0 0 0 0 0 0 0 0 0 0 0 0 0 127 0" result="hardAlpha"/>
<feOffset dy="4"/>
<feGaussianBlur stdDeviation="10"/>
<feComposite in2="hardAlpha" operator="out"/>
<feColorMatrix type="matrix" values="0 0 0 0 0 0 0 0 0 0 0 0 0 0 0 0 0 0 0.25 0"/>
<feBlend mode="normal" in2="BackgroundImageFix" result="effect1_dropShadow_74_1186"/>
<feBlend mode="normal" in="SourceGraphic" in2="effect1_dropShadow_74_1186" result="shape"/>
</filter>
<filter id="filter1_d_74_1186" x="0.892578" y="15.7431" width="61.0554" height="62.1189" filterUnits="userSpaceOnUse" color-interpolation-filters="sRGB">
<feFlood flood-opacity="0" result="BackgroundImageFix"/>
<feColorMatrix in="SourceAlpha" type="matrix" values="0 0 0 0 0 0 0 0 0 0 0 0 0 0 0 0 0 0 127 0" result="hardAlpha"/>
<feOffset dy="4"/>
<feGaussianBlur stdDeviation="10"/>
<feComposite in2="hardAlpha" operator="out"/>
<feColorMatrix type="matrix" values="0 0 0 0 0 0 0 0 0 0 0 0 0 0 0 0 0 0 0.25 0"/>
<feBlend mode="normal" in2="BackgroundImageFix" result="effect1_dropShadow_74_1186"/>
<feBlend mode="normal" in="SourceGraphic" in2="effect1_dropShadow_74_1186" result="shape"/>
</filter>
<linearGradient id="paint0_linear_74_1186" x1="48.9799" y1="38.2052" x2="38.9766" y2="19.4911" gradientUnits="userSpaceOnUse">
<stop/>
<stop offset="0.494792" stop-color="white"/>
<stop offset="1" stop-color="white"/>
</linearGradient>
<linearGradient id="paint1_linear_74_1186" x1="23.0741" y1="31.7431" x2="33.1138" y2="50.4816" gradientUnits="userSpaceOnUse">
<stop stop-color="#0C0C0C"/>
<stop offset="0.494792" stop-color="white"/>
<stop offset="1" stop-color="white"/>
</linearGradient>
</defs> 
</symbol>

<symbol id="logo-19x19" width="19" height="19" fill="none" viewBox="18.27 16 18.47 19">
<g filter="url(#filter0_d_74_1106)">
<path d="M34.7015 27.022L30.6949 17.8445L29.8213 17.2388L28.7971 16.9127L27.4114 16.54L25.7847 17.2388L24.7002 17.8445L28.7971 27.022H34.7015Z" fill="url(#paint0_linear_74_1106)"/>
</g>
<g filter="url(#filter1_d_74_1106)">
<path d="M20.3229 23.9535L24.3295 33.1525L25.2031 33.7595L26.2273 34.0864L27.613 34.46L29.2397 33.7595L30.3242 33.1525L26.2273 23.9535H20.3229Z" fill="url(#paint1_linear_74_1106)"/>
</g>
<path d="M24.4859 17.9646L18.2659 26.9553L24.4859 27.022L28.9822 17.9646C29.2979 17.038 30.2856 17.5785 30.74 17.9646C28.798 14.4065 25.7614 16.4821 24.4859 17.9646Z" fill="white"/>
<path d="M30.5141 33.0354L36.7341 24.0447L30.5141 23.978L26.0178 33.0354C25.7021 33.962 24.7144 33.4215 24.26 33.0354C26.202 36.5935 29.2386 34.5179 30.5141 33.0354Z" fill="white"/>
<defs>
<filter id="filter0_d_74_1106" x="4.7002" y="0.540039" width="50.0012" height="50.4819" filterUnits="userSpaceOnUse" color-interpolation-filters="sRGB">
<feFlood flood-opacity="0" result="BackgroundImageFix"/>
<feColorMatrix in="SourceAlpha" type="matrix" values="0 0 0 0 0 0 0 0 0 0 0 0 0 0 0 0 0 0 127 0" result="hardAlpha"/>
<feOffset dy="4"/>
<feGaussianBlur stdDeviation="10"/>
<feComposite in2="hardAlpha" operator="out"/>
<feColorMatrix type="matrix" values="0 0 0 0 0 0 0 0 0 0 0 0 0 0 0 0 0 0 0.25 0"/>
<feBlend mode="normal" in2="BackgroundImageFix" result="effect1_dropShadow_74_1106"/>
<feBlend mode="normal" in="SourceGraphic" in2="effect1_dropShadow_74_1106" result="shape"/>
</filter>
<filter id="filter1_d_74_1106" x="0.322998" y="7.95349" width="50.0012" height="50.5065" filterUnits="userSpaceOnUse" color-interpolation-filters="sRGB">
<feFlood flood-opacity="0" result="BackgroundImageFix"/>
<feColorMatrix in="SourceAlpha" type="matrix" values="0 0 0 0 0 0 0 0 0 0 0 0 0 0 0 0 0 0 127 0" result="hardAlpha"/>
<feOffset dy="4"/>
<feGaussianBlur stdDeviation="10"/>
<feComposite in2="hardAlpha" operator="out"/>
<feColorMatrix type="matrix" values="0 0 0 0 0 0 0 0 0 0 0 0 0 0 0 0 0 0 0.25 0"/>
<feBlend mode="normal" in2="BackgroundImageFix" result="effect1_dropShadow_74_1106"/>
<feBlend mode="normal" in="SourceGraphic" in2="effect1_dropShadow_74_1106" result="shape"/>
</filter>
<linearGradient id="paint0_linear_74_1106" x1="33.6653" y1="27.022" x2="28.9137" y2="18.1327" gradientUnits="userSpaceOnUse">
<stop/>
<stop offset="0.494792" stop-color="white"/>
<stop offset="1" stop-color="white"/>
</linearGradient>
<linearGradient id="paint1_linear_74_1106" x1="21.3591" y1="23.9535" x2="26.128" y2="32.8543" gradientUnits="userSpaceOnUse">
<stop stop-color="#0C0C0C"/>
<stop offset="0.494792" stop-color="white"/>
<stop offset="1" stop-color="white"/>
</linearGradient>
</defs> 
</symbol>

<symbol id="logo-14x14" width="14" height="14" fill="none" viewBox="19.2 16 13.61 14">
<g filter="url(#filter0_d_74_1114)">
<path d="M31.3071 24.1215L28.3549 17.3592L27.7112 16.9129L26.9565 16.6726L25.9355 16.398L24.7368 16.9129L23.9377 17.3592L26.9565 24.1215H31.3071Z" fill="url(#paint0_linear_74_1114)"/>
</g>
<g filter="url(#filter1_d_74_1114)">
<path d="M20.7119 21.8604L23.6641 28.6386L24.3078 29.0859L25.0625 29.3267L26.0836 29.602L27.2822 29.0859L28.0813 28.6386L25.0625 21.8604H20.7119Z" fill="url(#paint1_linear_74_1114)"/>
</g>
<path d="M23.7791 17.4476L19.196 24.0723L23.7791 24.1214L27.0921 17.4476C27.3247 16.7649 28.0526 17.1631 28.3874 17.4476C26.9564 14.8259 24.719 16.3552 23.7791 17.4476Z" fill="white"/>
<path d="M28.2209 28.5524L32.804 21.9277L28.2209 21.8786L24.9079 28.5524C24.6753 29.2351 23.9474 28.8369 23.6126 28.5524C25.0436 31.1741 27.281 29.6448 28.2209 28.5524Z" fill="white"/>
<defs>
<filter id="filter0_d_74_1114" x="3.93774" y="0.39801" width="47.3694" height="47.7235" filterUnits="userSpaceOnUse" color-interpolation-filters="sRGB">
<feFlood flood-opacity="0" result="BackgroundImageFix"/>
<feColorMatrix in="SourceAlpha" type="matrix" values="0 0 0 0 0 0 0 0 0 0 0 0 0 0 0 0 0 0 127 0" result="hardAlpha"/>
<feOffset dy="4"/>
<feGaussianBlur stdDeviation="10"/>
<feComposite in2="hardAlpha" operator="out"/>
<feColorMatrix type="matrix" values="0 0 0 0 0 0 0 0 0 0 0 0 0 0 0 0 0 0 0.25 0"/>
<feBlend mode="normal" in2="BackgroundImageFix" result="effect1_dropShadow_74_1114"/>
<feBlend mode="normal" in="SourceGraphic" in2="effect1_dropShadow_74_1114" result="shape"/>
</filter>
<filter id="filter1_d_74_1114" x="0.711914" y="5.86038" width="47.3694" height="47.7416" filterUnits="userSpaceOnUse" color-interpolation-filters="sRGB">
<feFlood flood-opacity="0" result="BackgroundImageFix"/>
<feColorMatrix in="SourceAlpha" type="matrix" values="0 0 0 0 0 0 0 0 0 0 0 0 0 0 0 0 0 0 127 0" result="hardAlpha"/>
<feOffset dy="4"/>
<feGaussianBlur stdDeviation="10"/>
<feComposite in2="hardAlpha" operator="out"/>
<feColorMatrix type="matrix" values="0 0 0 0 0 0 0 0 0 0 0 0 0 0 0 0 0 0 0.25 0"/>
<feBlend mode="normal" in2="BackgroundImageFix" result="effect1_dropShadow_74_1114"/>
<feBlend mode="normal" in="SourceGraphic" in2="effect1_dropShadow_74_1114" result="shape"/>
</filter>
<linearGradient id="paint0_linear_74_1114" x1="30.5436" y1="24.1215" x2="27.0425" y2="17.5716" gradientUnits="userSpaceOnUse">
<stop/>
<stop offset="0.494792" stop-color="white"/>
<stop offset="1" stop-color="white"/>
</linearGradient>
<linearGradient id="paint1_linear_74_1114" x1="21.4754" y1="21.8604" x2="24.9893" y2="28.4189" gradientUnits="userSpaceOnUse">
<stop stop-color="#0C0C0C"/>
<stop offset="0.494792" stop-color="white"/>
<stop offset="1" stop-color="white"/>
</linearGradient>
</defs> 
</symbol>

</defs>
</svg>