<svg xmlns="http://www.w3.org/2000/svg" fill="none" viewBox="19.2 16 13.61 14">
<g filter="url(#filter0_d_74_1114)">
<path d="M31.3071 24.1215L28.3549 17.3592L27.7112 16.9129L26.9565 16.6726L25.9355 16.398L24.7368 16.9129L23.9377 17.3592L26.9565 24.1215H31.3071Z" fill="url(#paint0_linear_74_1114)"/>
</g>
<g filter="url(#filter1_d_74_1114)">
<path d="M20.7119 21.8604L23.6641 28.6386L24.3078 29.0859L25.0625 29.3267L26.0836 29.602L27.2822 29.0859L28.0813 28.6386L25.0625 21.8604H20.7119Z" fill="url(#paint1_linear_74_1114)"/>
</g>
<path d="M23.7791 17.4476L19.196 24.0723L23.7791 24.1214L27.0921 17.4476C27.3247 16.7649 28.0526 17.1631 28.3874 17.4476C26.9564 14.8259 24.719 16.3552 23.7791 17.4476Z" fill="white"/>
<path d="M28.2209 28.5524L32.804 21.9277L28.2209 21.8786L24.9079 28.5524C24.6753 29.2351 23.9474 28.8369 23.6126 28.5524C25.0436 31.1741 27.281 29.6448 28.2209 28.5524Z" fill="white"/>
<defs>
<filter id="filter0_d_74_1114" x="3.93774" y="0.39801" width="47.3694" height="47.7235" filterUnits="userSpaceOnUse" color-interpolation-filters="sRGB">
<feFlood flood-opacity="0" result="BackgroundImageFix"/>
<feColorMatrix in="SourceAlpha" type="matrix" values="0 0 0 0 0 0 0 0 0 0 0 0 0 0 0 0 0 0 127 0" result="hardAlpha"/>
<feOffset dy="4"/>
<feGaussianBlur stdDeviation="10"/>
<feComposite in2="hardAlpha" operator="out"/>
<feColorMatrix type="matrix" values="0 0 0 0 0 0 0 0 0 0 0 0 0 0 0 0 0 0 0.25 0"/>
<feBlend mode="normal" in2="BackgroundImageFix" result="effect1_dropShadow_74_1114"/>
<feBlend mode="normal" in="SourceGraphic" in2="effect1_dropShadow_74_1114" result="shape"/>
</filter>
<filter id="filter1_d_74_1114" x="0.711914" y="5.86038" width="47.3694" height="47.7416" filterUnits="userSpaceOnUse" color-interpolation-filters="sRGB">
<feFlood flood-opacity="0" result="BackgroundImageFix"/>
<feColorMatrix in="SourceAlpha" type="matrix" values="0 0 0 0 0 0 0 0 0 0 0 0 0 0 0 0 0 0 127 0" result="hardAlpha"/>
<feOffset dy="4"/>
<feGaussianBlur stdDeviation="10"/>
<feComposite in2="hardAlpha" operator="out"/>
<feColorMatrix type="matrix" values="0 0 0 0 0 0 0 0 0 0 0 0 0 0 0 0 0 0 0.25 0"/>
<feBlend mode="normal" in2="BackgroundImageFix" result="effect1_dropShadow_74_1114"/>
<feBlend mode="normal" in="SourceGraphic" in2="effect1_dropShadow_74_1114" result="shape"/>
</filter>
<linearGradient id="paint0_linear_74_1114" x1="30.5436" y1="24.1215" x2="27.0425" y2="17.5716" gradientUnits="userSpaceOnUse">
<stop/>
<stop offset="0.494792" stop-color="white"/>
<stop offset="1" stop-color="white"/>
</linearGradient>
<linearGradient id="paint1_linear_74_1114" x1="21.4754" y1="21.8604" x2="24.9893" y2="28.4189" gradientUnits="userSpaceOnUse">
<stop stop-color="#0C0C0C"/>
<stop offset="0.494792" stop-color="white"/>
<stop offset="1" stop-color="white"/>
</linearGradient>
</defs>
</svg>